<svg height="464pt" viewBox="0 -1 464 464" width="464pt" xmlns="http://www.w3.org/2000/svg"><path d="m136 178.746094v104.5l55.707031-52.445313zm0 0"/><path d="m319.011719 171h-173.9375l86.976562 81.265625zm0 0"/><path d="m328 282.945312v-104.210937l-54.628906 51.050781zm0 0"/><path d="m236.144531 264.601562c-2.304687 2.152344-5.882812 2.152344-8.191406 0l-27.386719-25.722656-55.503906 52.121094h174.304688l-54.746094-53.144531zm0 0"/><path d="m232.050781 89.398438c-78.199219 0-141.820312 63.523437-141.820312 141.601562s63.621093 141.601562 141.820312 141.601562 141.816407-63.523437 141.816407-141.601562-63.617188-141.601562-141.816407-141.601562zm107.949219 75.601562v133c0 3.3125-2.6875 6-6 6h-204c-3.3125 0-6-2.6875-6-6v-133c0-3.3125 2.6875-6 6-6h204c3.3125 0 6 2.6875 6 6zm0 0"/><path d="m411.988281 192.476562c-4.734375-21.890624-13.53125-42.703124-25.933593-61.351562-1.46875-2.207031-1.3125-5.113281.375-7.152344l29.53125-35.609375-40.910157-41.324219-35.570312 29.503907c-2.007813 1.675781-4.867188 1.859375-7.074219.453125-18.769531-12.257813-39.609375-21.011719-61.507812-25.828125-2.542969-.5-4.460938-2.609375-4.71875-5.1875l-4.480469-45.980469h-58.800781l-4.472657 45.980469c-.265625 2.554687-2.1875 4.625-4.710937 5.085937-21.921875 4.691406-42.769532 13.453125-61.457032 25.832032-2.203124 1.460937-5.105468 1.304687-7.140624-.382813l-35.601563-29.515625-41.46875 41.378906 29.492187 35.585938c1.667969 2.03125 1.824219 4.90625.382813 7.101562-12.296875 18.746094-21.113281 39.558594-26.023437 61.433594-.613282 2.550781-2.78125 4.425781-5.390626 4.671875l-46.507812 4.476563v58.699218l46.5 4.476563c2.648438.238281 4.855469 2.117187 5.511719 4.695312 4.734375 21.890625 13.527343 42.703125 25.933593 61.351563 1.464844 2.207031 1.3125 5.113281-.378906 7.152344l-29.503906 35.585937 41.460938 41.375 35.597656-29.527344c2.007812-1.675781 4.871094-1.859375 7.074218-.453125 18.769532 12.257813 39.609376 21.011719 61.507813 25.828125 2.542969.5 4.460937 2.609375 4.722656 5.1875l4.472657 45.980469h58.800781l4.476562-45.980469c.265625-2.554687 2.183594-4.625 4.710938-5.085937 21.921875-4.691406 42.765625-13.453125 61.457031-25.832032 2.203125-1.460937 5.105469-1.304687 7.140625.382813l35.597656 29.515625 41.472657-41.378906-29.496094-35.589844c-1.664063-2.03125-1.820313-4.90625-.378906-7.101562 12.296874-18.746094 21.113281-39.554688 26.027343-61.429688.613281-2.546875 2.777344-4.425781 5.382813-4.671875l45.910156-4.46875v-58.710937l-46.5-4.476563c-2.648438-.234375-4.859375-2.117187-5.511719-4.695313zm-179.9375 192.125c-84.816406 0-153.820312-68.902343-153.820312-153.601562s69-153.601562 153.820312-153.601562c84.816407 0 153.816407 68.902343 153.816407 153.601562s-69.003907 153.601562-153.816407 153.601562zm0 0"/></svg>