<svg height="427pt" viewBox="0 1 427 427.999" width="427pt" xmlns="http://www.w3.org/2000/svg"><path d="m195.5 263.640625v11.535156c0 9.667969 7.835938 17.5 17.5 17.5s17.5-7.832031 17.5-17.5v-11.613281c-5.324219 2.15625-11 3.320312-16.742188 3.4375h-.40625c-6.078124 0-11.851562-1.417969-17.851562-3.359375zm0 0"/><path d="m213.699219 254.601562c22.605469-.167968 40.800781-18.964843 40.800781-41.902343v-19.421875l.207031-4.660156c.289063-8.910157-3.996093-17.347657-11.359375-22.371094-1.71875-1.175782-3.585937-2.117188-5.558594-2.796875-21.003906 34.808593-54.289062 43.640625-65.289062 45.730469v4.105468c-.105469 10.96875 4.199219 21.523438 11.945312 29.289063 7.746094 7.765625 18.285157 12.101562 29.253907 12.027343zm0 0"/><path d="m257.320312 280h-14.855468c-2.542969 14.082031-14.800782 24.324219-29.109375 24.324219-14.308594 0-26.566407-10.242188-29.109375-24.324219h-14.566406c-17.265626.117188-31.671876 13.214844-33.433594 30.390625 45.140625 36.199219 109.363281 36.199219 154.5 0-1.757813-17.171875-16.164063-30.269531-33.425782-30.390625zm0 0"/><path d="m167.140625 197.816406c2.957031-.289062 40.65625-4.738281 62.15625-44.085937 1.191406-2.1875 3.609375-3.40625 6.074219-3.066407 5.183594.742188 10.132812 2.652344 14.464844 5.59375 10.792968 7.261719 17.136718 19.53125 16.816406 32.535157l-.152344 4.574219v19.324218c.03125 3.636719-.304688 7.265625-1 10.835938 2.070312-3.414063 3.898438-6.964844 5.472656-10.632813 6.28125-15 6.605469-31.035156.90625-45.152343-5.804687-14.382813-14.898437-13.023438-16.667968-12.601563-3.023438.71875-6.09375-.992187-7.078126-3.941406l-.25-.761719c-3.796874-9.289062-10.765624-16.933594-19.667968-21.570312-9.273438-4.71875-19.785156-5.585938-30.421875-2.511719-17.890625 5.167969-32.582031 17.078125-40.355469 32.671875-4.5625 9.308594-6.699219 19.617187-6.214844 29.972656.589844 12.757812 4.15625 25.199219 10.421875 36.332031-.835937-3.960937-1.21875-8-1.144531-12.046875v-8.304687c-.101562-3.796875 2.847656-6.980469 6.640625-7.164063zm0 0"/><path d="m378.878906 178.363281c-4.496094-20.234375-12.617187-39.484375-23.972656-56.828125-1.417969-2.199218-1.25-5.0625.421875-7.078125l27.070313-32.695312-37.824219-37.824219-32.699219 27.085938c-2.039062 1.695312-4.945312 1.851562-7.15625.386718-17.269531-11.414062-36.511719-19.515625-56.75-23.886718-2.539062-.523438-4.445312-2.640626-4.699219-5.222657l-4.09375-42.300781h-51.351562l-4.089844 42.300781c-.257813 2.566407-2.167969 4.660157-4.699219 5.152344-20.242187 4.382813-39.488281 12.496094-56.753906 23.925781-2.207031 1.46875-5.117188 1.316406-7.15625-.371094l-32.699219-27.078124-37.828125 37.828124 27.082032 32.699219c1.671874 2.015625 1.84375 4.878907.425781 7.082031-11.347657 17.339844-19.464844 36.59375-23.957031 56.828126-.542969 2.546874-2.671876 4.449218-5.265626 4.699218l-42.382812 4.089844v53.6875l42.382812 4.085938c2.585938.253906 4.707032 2.15625 5.238282 4.699218 4.382812 20.238282 12.496094 39.484375 23.921875 56.757813 1.46875 2.203125 1.320312 5.113281-.371094 7.152343l-27.074219 32.699219 37.828125 37.824219 32.703125-27.085938c2.011719-1.675781 4.875-1.851562 7.078125-.4375 17.34375 11.34375 36.597657 19.453126 56.832031 23.9375 2.539063.523438 4.445313 2.640626 4.699219 5.222657l4.089844 42.300781h51.351563l4.089843-42.300781c.257813-2.566407 2.167969-4.660157 4.699219-5.15625 20.234375-4.496094 39.488281-12.617188 56.832031-23.972657 2.199219-1.417968 5.0625-1.246093 7.078125.421876l32.699219 27.078124 37.820313-37.828124-27.078126-32.699219c-1.691406-2.039063-1.847656-4.949219-.378906-7.15625 11.425782-17.269531 19.53125-36.515625 23.910156-56.753907.539063-2.550781 2.671876-4.453124 5.261719-4.707031l42.386719-4.082031v-53.6875l-42.382812-4.085938c-2.589844-.253906-4.710938-2.160156-5.238282-4.707031zm-165.378906 171.390625c-74.855469 0-135.753906-60.898437-135.753906-135.753906s60.898437-135.753906 135.753906-135.753906 135.753906 60.898437 135.753906 135.753906-60.898437 135.753906-135.753906 135.753906zm0 0"/><path d="m213.5 90.191406c-68.238281 0-123.753906 55.464844-123.753906 123.699219-.019532 32.722656 12.984375 64.101563 36.144531 87.214844 5.652344-19.515625 23.46875-32.988281 43.789063-33.105469h13.820312v-3.207031c-26-14.851563-43.226562-43.976563-44.519531-75.289063-.5-12.390625 2.132812-24.707031 7.652343-35.808594 9.269532-18.59375 26.6875-32.730468 47.800782-38.832031 25.121094-7.675781 52.058594 4.328125 63.148437 28.136719h.121094c10.527344 0 20.050781 7.464844 25.246094 20.332031 6.886719 17.070313 6.492187 36.265625-1.023438 54.199219-5.371093 12.824219-14.242187 25.359375-26.152343 37.253906-4.589844 4.582032-8.273438 8.40625-13.273438 11.636719v1.578125h14.820312c20.316407.117188 38.136719 13.589844 43.789063 33.105469 23.160156-23.121094 36.164063-54.511719 36.144531-87.238281 0-68.238282-55.515625-123.675782-123.753906-123.675782zm0 0"/></svg>