<svg height="448pt" viewBox="0 0 448 448" width="448pt" xmlns="http://www.w3.org/2000/svg" fill='url(#g1)'>
<defs>
<linearGradient id='g1' x1='1' y1='1'>
<stop stop-color='#04b682'/>
<stop offset='1' stop-color='#77e7ff'/>
</linearGradient>
</defs>
<path d="m178.640625 264.210938c3.199219 1.121093 5.347656 4.132812 5.359375 7.523437v48.238281h32v-152.800781c-20.121094-4.105469-33.863281-22.78125-31.796875-43.210937 2.0625-20.429688 19.261719-35.980469 39.796875-35.980469s37.734375 15.550781 39.796875 35.980469c2.066406 20.429687-11.675781 39.105468-31.796875 43.210937v152.800781h32v-48c.007812-3.449218 2.136719-6.535156 5.359375-7.761718 62.441406-22.089844 99.886719-85.945313 88.679687-151.222657-11.207031-65.277343-67.808593-112.988281-134.039062-112.988281s-122.832031 47.710938-134.039062 112.988281c-11.207032 65.277344 26.238281 129.132813 88.679687 151.222657zm-34.847656-99.199219 27.710937-16 8 13.855469-27.710937 16zm45.277343 7.433593 13.859376 8-16 27.703126-13.859376-8zm72 35.703126-16-27.703126 13.859376-8 16 27.703126zm35.136719-29.28125-27.703125-16 8-13.855469 27.703125 16zm15.792969-42.894532h-32v-16h32zm-7.792969-45.070312-27.703125 16-8-13.859375 27.703125-16zm-43.136719-43.136719 13.859376 8-16 27.710937-13.859376-8zm-45.070312-7.792969h16v32h-16zm-29.070312 7.792969 16 27.710937-13.859376 8-16-27.710937zm-35.136719 29.277344 27.710937 16-8 13.859375-27.710937-16zm-15.792969 42.929687h32v16h-32zm0 0"/><path d="m224 447.972656c22.089844 0 40-17.910156 40-40h-80c0 22.089844 17.910156 40 40 40zm0 0"/><path d="m448 223.972656c0 13.253906-10.746094 24-24 24s-24-10.746094-24-24 10.746094-24 24-24 24 10.746094 24 24zm0 0"/><path d="m276 359.972656h-104c-2.210938 0-4 1.789063-4 4 0 2.210938 1.789062 4 4 4h104c2.210938 0 4-1.789062 4-4 0-2.210937-1.789062-4-4-4zm0 0"/><path d="m276 335.972656h-104c-2.210938 0-4 1.789063-4 4 0 2.210938 1.789062 4 4 4h104c2.210938 0 4-1.789062 4-4 0-2.210937-1.789062-4-4-4zm0 0"/><path d="m276 383.972656h-104c-2.210938 0-4 1.789063-4 4 0 2.210938 1.789062 4 4 4h104c2.210938 0 4-1.789062 4-4 0-2.210937-1.789062-4-4-4zm0 0"/><path d="m248 127.972656c0 13.253906-10.746094 24-24 24s-24-10.746094-24-24 10.746094-24 24-24 24 10.746094 24 24zm0 0"/><path d="m393.679688 347.414062c-.320313-.800781-.640626-1.601562-.960938-2.320312-.820312-1.839844-.9375-3.921875-.320312-5.839844l3.679687-11.042968-4.316406-4.316407-11.042969 3.679688c-1.917969.617187-4 .5-5.839844-.320313-.75-.371094-1.527344-.691406-2.320312-.960937-1.878906-.714844-3.421875-2.117188-4.320313-3.921875l-5.199219-10.398438h-6.078124l-5.199219 10.398438c-.898438 1.804687-2.441407 3.207031-4.320313 3.921875-.800781.320312-1.601562.640625-2.320312.960937-1.84375.820313-3.921875.933594-5.839844.320313l-11.042969-3.679688-4.316406 4.316407 3.679687 11.042968c.617188 1.917969.5 4-.320312 5.839844-.371094.75-.691406 1.527344-.960938 2.320312-.714843 1.878907-2.117187 3.421876-3.921874 4.320313l-10.398438 5.199219v6.078125l10.398438 5.199219c1.804687.898437 3.207031 2.441406 3.921874 4.320312.320313.800781.640626 1.601562.960938 2.320312.820312 1.839844.9375 3.921876.320312 5.839844l-3.679687 11.042969 4.316406 4.316406 11.042969-3.679687c1.917969-.617188 4-.5 5.839844.320312.75.371094 1.527344.691406 2.320312.960938 1.878906.714844 3.421875 2.117187 4.320313 3.921875l5.199219 10.398437h6.078124l5.199219-10.398437c.898438-1.804688 2.441407-3.207031 4.320313-3.921875.800781-.320313 1.601562-.640625 2.320312-.960938 1.84375-.820312 3.921875-.933594 5.839844-.320312l11.042969 3.679687 4.316406-4.316406-3.679687-11.042969c-.617188-1.917968-.5-4 .320312-5.839844.371094-.75.691406-1.527343.960938-2.320312.714843-1.878906 2.117187-3.421875 3.921874-4.320312l10.398438-5.199219v-6.078125l-10.398438-5.199219c-1.804687-.898437-3.207031-2.441406-3.921874-4.320313zm-33.679688 36.558594c-13.253906 0-24-10.746094-24-24s10.746094-24 24-24 24 10.746094 24 24-10.746094 24-24 24zm0 0"/><path d="m368 359.972656c0 4.417969-3.582031 8-8 8s-8-3.582031-8-8c0-4.417968 3.582031-8 8-8s8 3.582032 8 8zm0 0"/><path d="m48 223.972656c0 13.253906-10.746094 24-24 24s-24-10.746094-24-24 10.746094-24 24-24 24 10.746094 24 24zm0 0"/><path d="m121.679688 347.414062c-.320313-.800781-.640626-1.601562-.960938-2.320312-.820312-1.839844-.9375-3.921875-.320312-5.839844l3.679687-11.042968-4.316406-4.316407-11.042969 3.679688c-1.917969.617187-4 .5-5.839844-.320313-.75-.371094-1.527344-.691406-2.320312-.960937-1.878906-.714844-3.421875-2.117188-4.320313-3.921875l-5.199219-10.398438h-6.078124l-5.199219 10.398438c-.898438 1.804687-2.441407 3.207031-4.320313 3.921875-.792968.269531-1.570312.589843-2.320312.960937-1.839844.820313-3.921875.9375-5.839844.320313l-11.042969-3.679688-4.316406 4.316407 3.679687 11.042968c.617188 1.917969.5 4-.320312 5.839844-.371094.75-.691406 1.527344-.960938 2.320312-.714843 1.878907-2.117187 3.421876-3.921874 4.320313l-10.398438 5.199219v6.078125l10.398438 5.199219c1.804687.898437 3.207031 2.441406 3.921874 4.320312.269532.792969.589844 1.570312.960938 2.320312.820312 1.839844.9375 3.921876.320312 5.839844l-3.679687 11.042969 4.316406 4.316406 11.042969-3.679687c1.917969-.613282 3.996094-.5 5.839844.320312.71875.320313 1.519531.640625 2.320312.960938 1.878906.714844 3.421875 2.117187 4.320313 3.921875l5.199219 10.398437h6.078124l5.199219-10.398437c.898438-1.804688 2.441407-3.207031 4.320313-3.921875.800781-.320313 1.601562-.640625 2.320312-.960938 1.84375-.820312 3.921875-.933594 5.839844-.320312l11.042969 3.679687 4.316406-4.316406-3.679687-11.042969c-.617188-1.917968-.5-4 .320312-5.839844.320312-.71875.640625-1.519531.960938-2.320312.714843-1.878906 2.117187-3.421875 3.921874-4.320312l10.398438-5.199219v-6.078125l-10.398438-5.199219c-1.804687-.898437-3.207031-2.441406-3.921874-4.320313zm-33.679688 36.558594c-13.253906 0-24-10.746094-24-24s10.746094-24 24-24 24 10.746094 24 24-10.746094 24-24 24zm0 0"/><path d="m96 359.972656c0 4.417969-3.582031 8-8 8s-8-3.582031-8-8c0-4.417968 3.582031-8 8-8s8 3.582032 8 8zm0 0"/><path d="m54.238281 100.371094 1.121094 2.800781c.757813 1.777344.84375 3.765625.242187 5.601563l-3.679687 10.960937 4.316406 4.316406 10.882813-3.597656c1.824218-.628906 3.8125-.574219 5.597656.160156h.082031c.398438-4.320312 1.121094-8.480469 1.917969-12.71875-8.816406-5.84375-12.757812-16.777343-9.699219-26.902343 3.0625-10.125 12.402344-17.042969 22.980469-17.019532.699219.039063 1.390625.121094 2.078125.238282 2.242187-4.238282 4.722656-8.316407 7.363281-12.316407-.445312-.453125-.820312-.964843-1.121094-1.523437l-5.28125-10.398438h-6.078124l-5.28125 10.480469c-.875 1.691406-2.320313 3.023437-4.078126 3.757813l-2.800781 1.121093c-1.777343.757813-3.765625.84375-5.601562.242188l-10.960938-3.679688-4.316406 4.316407 3.679687 10.960937c.601563 1.835937.515626 3.824219-.242187 5.601563l-1.121094 2.800781c-.734375 1.757812-2.066406 3.203125-3.757812 4.078125l-10.480469 5.28125v6.078125l10.480469 5.28125c1.691406.875 3.023437 2.320312 3.757812 4.078125zm0 0"/><path d="m360 63.972656c10.578125-.023437 19.917969 6.894532 22.980469 17.019532 3.058593 10.125-.882813 21.058593-9.699219 26.902343.796875 4.15625 1.519531 8.398438 1.917969 12.636719 1.785156-.730469 3.777343-.789062 5.601562-.160156l10.960938 3.679687 4.316406-4.316406-3.679687-10.960937c-.601563-1.835938-.515626-3.824219.242187-5.601563l1.121094-2.800781c.734375-1.757813 2.066406-3.203125 3.757812-4.078125l10.480469-5.28125v-6.078125l-10.398438-5.28125c-1.710937-.855469-3.050781-2.304688-3.761718-4.078125l-1.199219-2.882813c-.734375-1.785156-.789063-3.773437-.160156-5.597656l3.597656-10.882812-4.316406-4.316407-10.882813 3.597657c-1.824218.628906-3.8125.574218-5.597656-.160157l-2.640625-1.039062c-1.851563-.765625-3.378906-2.152344-4.320313-3.921875l-5.28125-10.398438h-6.078124l-5.28125 10.398438c-.300782.558594-.675782 1.070312-1.121094 1.523437 2.640625 4 5.121094 8.078125 7.363281 12.316407.6875-.117188 1.378906-.199219 2.078125-.238282zm0 0"/><path d="m405.496094 323.324219-13.863282-8c10.878907-18.785157 18.277344-39.382813 21.839844-60.800781l15.773438 2.617187c-3.855469 23.3125-11.902344 45.738281-23.75 66.183594zm0 0"/><path d="m413.472656 193.460938c-3.589844-21.425782-10.988281-42.035157-21.839844-60.855469l13.863282-8c11.808594 20.464843 19.855468 42.878906 23.75 66.183593zm0 0"/><path d="m42.503906 323.324219c-11.847656-20.453125-19.894531-42.878907-23.75-66.199219l15.773438-2.617188c3.5625 21.417969 10.960937 42.015626 21.839844 60.800782zm0 0"/><path d="m34.527344 193.460938-15.773438-2.65625c3.894532-23.304688 11.941406-45.71875 23.75-66.183594l13.863282 8c-10.855469 18.8125-18.25 39.417968-21.839844 60.839844zm0 0"/></svg>