<svg height="464pt" viewBox="-9 0 464 464" width="464pt" xmlns="http://www.w3.org/2000/svg"><path d="m270.71875 78v-12.71875c-15.5625 4.679688-31.75 6.945312-48 6.71875-16.25.226562-32.4375-2.039062-48-6.71875v12.71875c3.679688 3.199219 20.5625 8.558594 48 8.558594 27.441406 0 44.320312-5.359375 48-8.558594zm0 0"/><path d="m108.960938 200.398438 11.4375 6.402343-12.078126 5.039063-.242187 4.960937c13.097656 5.914063 26.597656 10.886719 40.402344 14.878907 21.585937 6.238281 43.804687 10.023437 66.238281 11.28125v103.917968c-10.101562.726563-20.257812-.167968-30.078125-2.640625-6.085937-1.558593-12.007813-3.699219-17.679687-6.398437-.824219 1.039062-1.703126 2.027344-2.640626 2.960937l-.082031.160157 16.402344 15.199218-16.480469-2.082031c5.332032 2.40625 10.875 4.308594 16.558594 5.683594 8.8125 2.230469 17.871094 3.359375 26.960938 3.359375 2.320312 0 4.71875-.082032 7.039062-.242188v21.121094h16v-21.121094c2.320312.160156 4.722656.242188 7.042969.242188 9.0625.003906 18.09375-1.121094 26.878906-3.359375 5.703125-1.398438 11.273437-3.300781 16.640625-5.683594l-16.480469 2.082031 16.398438-15.199218-.078125-.160157c-.964844-.9375-1.847656-1.957031-2.640625-3.039062-5.683594 2.757812-11.636719 4.929687-17.761719 6.476562-9.792969 2.472657-19.921875 3.367188-30 2.640625v-103.917968c22.433594-1.257813 44.65625-5.042969 66.242188-11.28125 13.804687-3.992188 27.304687-8.964844 40.398437-14.878907l-.238281-5.359375-11.441406-4.960937 10.800781-6.082031-.082031-.796876c-14.152344 6.769532-28.84375 12.363282-43.917969 16.71875-20.132813 5.796876-40.847657 9.339844-61.761719 10.558594v-42.878906h-16v42.878906c-20.914062-1.21875-41.625-4.761718-61.757812-10.558594-15.074219-4.355468-29.765626-9.949218-43.921876-16.71875zm0 0"/><path d="m270.71875 164.558594v-7.679688c-15.5625 4.683594-31.75 6.949219-48 6.722656-16.25.226563-32.4375-2.039062-48-6.722656v7.679688c3.679688 3.121094 20.5625 8.5625 48 8.5625 27.441406 0 44.320312-5.441406 48-8.5625zm0 0"/><path d="m270.71875 47.441406v-12.722656c-15.5625 4.683594-31.75 6.949219-48 6.722656-16.25.226563-32.4375-2.039062-48-6.722656v12.722656c3.679688 3.199219 20.5625 8.558594 48 8.558594 27.441406 0 44.320312-5.359375 48-8.558594zm0 0"/><path d="m268.71875 18.160156c-14.671875-5.546875-30.328125-8.023437-46-7.28125-15.667969-.742187-31.324219 1.734375-46 7.28125 14.667969 5.574219 30.328125 8.050782 46 7.28125 15.671875.769532 31.332031-1.707031 46-7.28125zm0 0"/><path d="m354.078125 180.320312c-1.488281 3.566407-2.199219 7.414063-2.078125 11.28125 11.804688-6.535156 23.140625-13.886718 33.921875-22l9.597656 12.796876c-10.863281 8.152343-22.246093 15.582031-34.078125 22.242187 3.480469 1.386719 7.214844 2.015625 10.957032 1.839844 10.363281-.621094 20.332031-4.203125 28.722656-10.320313 13.519531-9.519531 16.640625-31.199218 17.359375-41.441406-9.921875-2.878906-31.359375-7.359375-44.878907 2.082031-8.65625 5.777344-15.4375 13.949219-19.523437 23.519531zm0 0"/><path d="m337.121094 324.160156c13.519531-9.519531 16.640625-31.199218 17.359375-41.441406-9.921875-2.878906-31.359375-7.359375-44.878907 2.082031-8.65625 5.777344-15.4375 13.949219-19.523437 23.519531-2.925781 6.085938-2.71875 13.214844.5625 19.121094.542969.726563 1.128906 1.421875 1.757813 2.078125 11.054687-7.914062 20.386718-17.980469 27.441406-29.597656l13.761718 8.15625c-5.882812 9.617187-13.074218 18.367187-21.363281 26 8.964844-1.28125 17.496094-4.679687 24.882813-9.917969zm0 0"/><path d="m278.71875 448h-24v16h190.722656c-11.28125-36.160156-97.921875-72-222.722656-72 1.671875-.011719 3.300781.523438 4.640625 1.519531l56 40c2.800781 2.027344 3.984375 5.628907 2.929687 8.921875-1.058593 3.292969-4.109374 5.535156-7.570312 5.558594zm0 0"/><path d="m0 464h190.71875v-16h-24c-3.457031-.023438-6.511719-2.265625-7.566406-5.558594-1.054688-3.292968.125-6.894531 2.925781-8.921875l56-40c1.339844-.996093 2.972656-1.53125 4.640625-1.519531-124.796875 0-211.4375 35.839844-222.71875 72zm0 0"/><path d="m191.679688 432h7.039062c4.417969 0 8 3.582031 8 8v24h32v-24c0-4.417969 3.582031-8 8-8h7.042969l-31.042969-22.160156zm0 0"/><path d="m44.320312 196.160156c8.390626 6.117188 18.355469 9.699219 28.71875 10.320313 3.742188.136719 7.46875-.488281 10.960938-1.839844-11.832031-6.660156-23.21875-14.089844-34.078125-22.242187l9.597656-12.796876c10.78125 8.113282 22.113281 15.464844 33.921875 22 .121094-3.867187-.589844-7.714843-2.082031-11.28125-4.082031-9.570312-10.867187-17.742187-19.519531-23.519531-13.519532-9.441406-34.960938-4.960937-44.878906-2.082031.71875 10.242188 3.839843 31.921875 17.359374 41.441406zm0 0"/><path d="m153.039062 329.519531c.628907-.65625 1.21875-1.351562 1.761719-2.078125 3.277344-5.90625 3.488281-13.035156.558594-19.121094-4.082031-9.570312-10.867187-17.742187-19.519531-23.519531-13.519532-9.441406-34.960938-4.960937-44.878906-2.082031.71875 10.242188 3.839843 31.921875 17.359374 41.441406 7.386719 5.238282 15.914063 8.636719 24.878907 9.917969-8.289063-7.632813-15.476563-16.382813-21.359375-26l13.761718-8.15625c7.054688 11.617187 16.386719 21.683594 27.4375 29.597656zm0 0"/><path d="m318.71875 48h16v-16h16v-16h-16v-16h-16v16h-16v16h16zm0 0"/><path d="m342.71875 104h16v16h16v-16h16v-16h-16v-16h-16v16h-16zm0 0"/><path d="m110.71875 48h16v-16h16v-16h-16v-16h-16v16h-16v16h16zm0 0"/><path d="m70.71875 120h16v-16h16v-16h-16v-16h-16v16h-16v16h16zm0 0"/><path d="m270.71875 139.121094v-12.800782c-15.558594 4.699219-31.746094 6.992188-48 6.800782-16.25.191406-32.4375-2.101563-48-6.800782v12.800782c3.679688 3.117187 20.5625 8.480468 48 8.480468 27.441406 0 44.320312-5.363281 48-8.480468zm0 0"/><path d="m270.71875 108.558594v-12.71875c-15.5625 4.683594-31.75 6.949218-48 6.71875-16.25.230468-32.4375-2.035156-48-6.71875v12.71875c3.679688 3.121094 20.5625 8.5625 48 8.5625 27.441406 0 44.320312-5.441406 48-8.5625zm0 0"/></svg>