<svg id="Layer_1" height="512" viewBox="0 0 512 512" width="512" xmlns="http://www.w3.org/2000/svg" data-name="Layer 1"><path d="m219.16 216.27-35.308 35.328 76.593 76.595 35.319-35.318z"/><path d="m301.771 360.442 35.829-35.833a32 32 0 0 0 9.019-17.663l9.693-60.482-68.06 68.061z"/><path d="m192.821 265.388h25.962v81.323h-25.962z" transform="matrix(.707 -.707 .707 .707 -156.131 235.162)"/><path d="m327.133 261.507-76.617-76.616-24.287 24.309 76.6 76.607z"/><path d="m265.768 155.473-60.868 9.755a31.993 31.993 0 0 0 -17.662 9.02l-35.828 35.833 46.205 13.6c26.696-26.71 49.203-49.237 68.153-68.208z"/><path d="m371.375 63.686c-1.051 1.128-9.541 9.781-113.791 114.131l76.616 76.619 113.886-113.884c18.035-18.036 44.787-61.071 32.752-109.541-48.404-12.022-91.383 14.64-109.463 32.675zm57.58 74.075-59.99 59.988a5 5 0 0 1 -7.07 0l-47.795-47.792a5 5 0 0 1 0-7.071l59.992-59.986a38.794 38.794 0 1 1 54.863 54.864z"/><path d="m342.16 130.963h19.868v57.588h-19.868z" transform="matrix(.707 -.707 .707 .707 -9.841 295.755)"/><path d="m401.523 81.534a28.579 28.579 0 0 0 -19.656 7.766c.643-.032 1.291-.048 1.94-.048a38.764 38.764 0 0 1 38.724 40.759 28.788 28.788 0 0 0 -21.008-48.474z"/><path d="m383.807 99.249a28.6 28.6 0 0 0 -20.35 8.425l-17.629 17.626 40.723 40.721 17.621-17.621a28.8 28.8 0 0 0 -20.365-49.153z"/><path d="m138.238 373.309a5 5 0 0 0 7.073 0l6.058-6.059a5 5 0 1 0 -7.07-7.071l-6.059 6.059a5 5 0 0 0 -.002 7.071z"/><path d="m127.822 384.33a5 5 0 0 0 -7.07 0l-32.981 32.98a5 5 0 1 0 7.071 7.071l32.98-32.979a5 5 0 0 0 0-7.072z"/><path d="m48.26 456.822-10.172 10.178a5 5 0 1 0 7.07 7.071l10.172-10.178a5 5 0 1 0 -7.07-7.071z"/><path d="m69 436.078-2.393 2.393a5 5 0 0 0 7.071 7.072l2.392-2.392a5 5 0 0 0 -7.07-7.073z"/><path d="m97.848 362.772a5 5 0 0 0 7.07 0l37.158-37.157a5 5 0 0 0 -7.07-7.072l-37.158 37.157a5 5 0 0 0 0 7.072z"/><path d="m87.43 373.792a5 5 0 0 0 -7.073 0l-1.132 1.134a5 5 0 1 0 7.075 7.074l1.133-1.134a5 5 0 0 0 -.003-7.074z"/><path d="m48.666 417.556a4.981 4.981 0 0 0 3.535-1.464l15.324-15.325a5 5 0 1 0 -7.07-7.071l-15.324 15.325a5 5 0 0 0 3.535 8.535z"/><path d="m100.8 313.893a4.983 4.983 0 0 0 3.535-1.464l22.23-22.231a5 5 0 0 0 -7.07-7.071l-22.23 22.23a5 5 0 0 0 3.535 8.536z"/><path d="m57.3 358a4.984 4.984 0 0 0 3.535-1.464l26.009-26.016a5 5 0 0 0 -7.071-7.071l-26.013 26.013a5 5 0 0 0 3.54 8.538z"/><path d="m42.061 375.3a5 5 0 0 0 -7.071-7.072l-5.373 5.372a5 5 0 0 0 7.071 7.072z"/><path d="m193.006 376.545a5 5 0 0 0 -7.07-7.072l-12.28 12.279a5 5 0 0 0 7.071 7.072z"/><path d="m133.689 434.393a4.983 4.983 0 0 0 3.536-1.464l21.039-21.038a5 5 0 0 0 -7.071-7.071l-21.039 21.037a5 5 0 0 0 3.535 8.536z"/><path d="m111.387 444.626-15.326 15.325a5 5 0 1 0 7.07 7.071l15.326-15.322a5 5 0 0 0 -7.07-7.072z"/><path d="m221.352 384.987-42.133 42.133a5 5 0 1 0 7.07 7.072l42.133-42.134a5 5 0 0 0 -7.07-7.071z"/><path d="m161.73 445.212-6.111 6.11a5 5 0 1 0 7.07 7.071l6.112-6.109a5 5 0 0 0 -7.071-7.072z"/><path d="m136.85 470.092-5.373 5.373a5 5 0 1 0 7.072 7.07l5.373-5.373a5 5 0 1 0 -7.072-7.07z"/><path d="m270.5 129.878a4.982 4.982 0 0 0 3.535-1.465l62.2-62.2a5 5 0 1 0 -7.07-7.071l-62.2 62.2a5 5 0 0 0 3.535 8.536z"/><path d="m349.16 51.218a4.982 4.982 0 0 0 3.535-1.465l4.127-4.127a5 5 0 1 0 -7.07-7.071l-4.127 4.127a5 5 0 0 0 3.535 8.536z"/></svg>