<svg height="464pt" viewBox="0 -8 464 464" width="464pt" xmlns="http://www.w3.org/2000/svg" fill='url(#g1)'>
<defs>
<linearGradient id='g1' x1='1' y1='1'>
<stop stop-color='#04b682'/>
<stop offset='1' stop-color='#77e7ff'/>
</linearGradient>
</defs>
<path d="m305.671875 211.382812c-.289063-.796874-.59375-1.542968-.9375-2.285156-.835937-1.839844-.949219-3.929687-.308594-5.851562l3.679688-11.03125-4.320313-4.320313-11.03125 3.679688c-1.921875.640625-4.011718.527343-5.851562-.308594-.742188-.34375-1.511719-.648437-2.285156-.9375-1.894532-.710937-3.449219-2.109375-4.351563-3.921875l-5.210937-10.40625h-6.109376l-5.203124 10.398438c-.902344 1.8125-2.460938 3.214843-4.359376 3.921874-.796874.289063-1.550781.601563-2.304687.945313-1.835937.832031-3.917969.941406-5.832031.300781l-11.03125-3.679687-4.320313 4.320312 3.679688 11.03125c.640625 1.921875.527343 4.011719-.308594 5.851563-.335937.742187-.648437 1.511718-.9375 2.285156-.707031 1.898438-2.109375 3.457031-3.921875 4.359375l-10.398438 5.203125v6.109375l10.398438 5.199219c1.8125.90625 3.214844 2.464844 3.921875 4.363281.289063.796875.601563 1.542969.9375 2.285156.835937 1.839844.949219 3.929688.308594 5.847657l-3.679688 11.035156 4.320313 4.320312 11.03125-3.683594c1.921875-.636718 4.011718-.527343 5.851562.3125.742188.335938 1.511719.648438 2.285156.9375 1.898438.707032 3.457032 2.109376 4.359376 3.921876l5.203124 10.398437h6.109376l5.203124-10.398437c.902344-1.8125 2.460938-3.214844 4.359376-3.921876.796874-.289062 1.535156-.59375 2.269531-.9375 1.847656-.832031 3.933593-.941406 5.855469-.3125l11.042968 3.683594 4.320313-4.320312-3.679688-11.035156c-.640625-1.917969-.527343-4.007813.308594-5.847657.335937-.742187.648437-1.511719.9375-2.285156.707031-1.898437 2.109375-3.457031 3.921875-4.363281l10.398438-5.199219v-6.109375l-10.398438-5.210938c-1.808594-.898437-3.210938-2.453124-3.921875-4.34375zm-33.671875 36.617188c-13.253906 0-24-10.746094-24-24s10.746094-24 24-24 24 10.746094 24 24-10.746094 24-24 24zm0 0"/><path d="m280 224c0 4.417969-3.582031 8-8 8s-8-3.582031-8-8 3.582031-8 8-8 8 3.582031 8 8zm0 0"/><path d="m94.328125 60.617188c.289063.796874.59375 1.535156.9375 2.269531.839844 1.84375.953125 3.9375.308594 5.855469l-3.679688 11.042968 4.320313 4.320313 11.03125-3.679688c1.921875-.640625 4.011718-.527343 5.851562.308594.742188.34375 1.511719.648437 2.285156.9375 1.894532.710937 3.449219 2.109375 4.351563 3.921875l5.210937 10.398438h6.109376l5.203124-10.398438c.902344-1.8125 2.460938-3.214844 4.359376-3.921875.796874-.289063 1.542968-.601563 2.285156-.9375 1.839844-.835937 3.929687-.949219 5.851562-.308594l11.03125 3.679688 4.320313-4.320313-3.679688-11.03125c-.640625-1.921875-.527343-4.011718.308594-5.851562.34375-.742188.648437-1.511719.9375-2.285156.710937-1.894532 2.109375-3.449219 3.921875-4.351563l10.398438-5.210937v-6.109376l-10.398438-5.203124c-1.8125-.902344-3.214844-2.460938-3.921875-4.359376-.289063-.796874-.601563-1.550781-.945313-2.304687-.832031-1.835937-.941406-3.917969-.300781-5.832031l3.679688-11.03125-4.320313-4.320313-11.03125 3.679688c-1.921875.632812-4.007812.523437-5.851562-.308594-.742188-.335937-1.511719-.648437-2.285156-.9375-1.898438-.707031-3.457032-2.109375-4.359376-3.921875l-5.203124-10.40625h-6.109376l-5.203124 10.398438c-.902344 1.8125-2.460938 3.214843-4.359376 3.921874-.796874.289063-1.542968.601563-2.285156.9375-1.84375.828126-3.929687.941407-5.851562.308594l-11.03125-3.679687-4.320313 4.320312 3.679688 11.03125c.640625 1.921875.527343 4.011719-.308594 5.851563-.335937.742187-.648437 1.511718-.9375 2.285156-.707031 1.898438-2.109375 3.457031-3.921875 4.359375l-10.398438 5.203125v6.109375l10.398438 5.199219c1.816406.910156 3.214844 2.46875 3.921875 4.371094zm33.671875-36.617188c13.253906 0 24 10.746094 24 24s-10.746094 24-24 24-24-10.746094-24-24 10.746094-24 24-24zm0 0"/><path d="m136 48c0 4.417969-3.582031 8-8 8s-8-3.582031-8-8 3.582031-8 8-8 8 3.582031 8 8zm0 0"/><path d="m142.902344 367.265625c-.742188-.335937-1.511719-.648437-2.285156-.9375-1.898438-.707031-3.457032-2.109375-4.359376-3.921875l-5.203124-10.398438h-6.109376l-5.203124 10.398438c-.902344 1.8125-2.460938 3.214844-4.359376 3.921875-.796874.289063-1.542968.601563-2.285156.9375-1.84375.828125-3.929687.941406-5.851562.308594l-11.03125-3.679688-4.320313 4.320313 3.679688 11.03125c.640625 1.921875.527343 4.011718-.308594 5.851562-.335937.742188-.648437 1.511719-.9375 2.285156-.707031 1.898438-2.109375 3.457032-3.921875 4.359376l-10.398438 5.203124v6.109376l10.398438 5.203124c1.8125.902344 3.214844 2.460938 3.921875 4.359376.289063.796874.59375 1.535156.9375 2.269531.839844 1.84375.953125 3.9375.308594 5.855469l-3.679688 11.042968 4.320313 4.320313 11.03125-3.679688c1.921875-.640625 4.011718-.527343 5.851562.308594.742188.34375 1.511719.648437 2.285156.9375 1.894532.710937 3.449219 2.109375 4.351563 3.921875l5.210937 10.398438h6.109376l5.203124-10.398438c.902344-1.8125 2.460938-3.214844 4.359376-3.921875.796874-.289063 1.542968-.601563 2.285156-.9375 1.839844-.835937 3.929687-.949219 5.851562-.308594l11.03125 3.679688 4.320313-4.320313-3.679688-11.03125c-.640625-1.921875-.527343-4.011718.308594-5.851562.34375-.742188.648437-1.511719.9375-2.285156.710937-1.894532 2.109375-3.449219 3.921875-4.351563l10.398438-5.210937v-6.109376l-10.398438-5.203124c-1.8125-.902344-3.214844-2.460938-3.921875-4.359376-.289063-.796874-.601563-1.550781-.945313-2.304687-.832031-1.835937-.941406-3.917969-.300781-5.832031l3.679688-11.03125-4.320313-4.320313-11.03125 3.679688c-1.921875.632812-4.007812.523437-5.851562-.308594zm9.097656 32.734375c0 13.253906-10.746094 24-24 24s-24-10.746094-24-24 10.746094-24 24-24 24 10.746094 24 24zm0 0"/><path d="m136 400c0 4.417969-3.582031 8-8 8s-8-3.582031-8-8 3.582031-8 8-8 8 3.582031 8 8zm0 0"/><path d="m49.097656 256.734375c.742188.34375 1.511719.648437 2.285156.9375 1.894532.710937 3.449219 2.109375 4.351563 3.921875l1.210937 2.398438h14.109376l1.203124-2.398438c.902344-1.8125 2.460938-3.214844 4.359376-3.921875.796874-.289063 1.542968-.601563 2.285156-.9375 1.839844-.835937 3.929687-.949219 5.851562-.308594l11.03125 3.679688 4.320313-4.320313-3.679688-11.03125c-.640625-1.921875-.527343-4.011718.308594-5.851562.34375-.742188.648437-1.511719.9375-2.285156.710937-1.894532 2.109375-3.449219 3.921875-4.351563l10.398438-5.210937v-6.109376l-10.398438-5.203124c-1.8125-.902344-3.214844-2.460938-3.921875-4.359376-.289063-.796874-.601563-1.550781-.945313-2.304687-.832031-1.835937-.941406-3.917969-.300781-5.832031l3.679688-11.03125-4.320313-4.320313-11.03125 3.679688c-1.921875.640625-4.011718.527343-5.851562-.308594-.742188-.335937-1.511719-.648437-2.285156-.9375-1.898438-.707031-3.457032-2.109375-4.359376-3.921875l-1.203124-2.398438h-14.109376l-1.203124 2.398438c-.902344 1.8125-2.460938 3.214844-4.359376 3.921875-.796874.289063-1.542968.601563-2.285156.9375-1.839844.835937-3.929687.949219-5.851562.308594l-11.03125-3.679688-4.320313 4.320313 3.679688 11.03125c.640625 1.921875.527343 4.011718-.308594 5.851562-.335937.742188-.648437 1.511719-.9375 2.285156-.707031 1.898438-2.109375 3.457032-3.921875 4.359376l-10.398438 5.203124v6.109376l10.398438 5.203124c1.8125.902344 3.214844 2.460938 3.921875 4.359376.289063.796874.59375 1.535156.9375 2.269531.839844 1.84375.953125 3.9375.308594 5.855469l-3.679688 11.042968 4.320313 4.320313 11.03125-3.679688c1.921875-.640625 4.011718-.527343 5.851562.308594zm-9.097656-32.734375c0-13.253906 10.746094-24 24-24s24 10.746094 24 24-10.746094 24-24 24-24-10.746094-24-24zm0 0"/><path d="m72 224c0 4.417969-3.582031 8-8 8s-8-3.582031-8-8 3.582031-8 8-8 8 3.582031 8 8zm0 0"/><path d="m344 80h32v80h-32zm0 0"/><path d="m280 168h-16v-24h-24c-4.417969 0-8-3.582031-8-8v-96h16v88h24c4.417969 0 8 3.582031 8 8zm0 0"/><path d="m320 184h-16v-64c0-4.417969 3.582031-8 8-8h24v16h-16zm0 0"/><path d="m72 184h-16v-48h-48c-4.417969 0-8-3.582031-8-8v-80c0-4.417969 3.582031-8 8-8h64v16h-56v64h48c4.417969 0 8 3.582031 8 8zm0 0"/><path d="m72 408h-64c-4.417969 0-8-3.582031-8-8v-80c0-4.417969 3.582031-8 8-8h48v-48h16v56c0 4.417969-3.582031 8-8 8h-48v64h56zm0 0"/><path d="m120 216h96v16h-96zm0 0"/><path d="m448 128h-64v-16h56v-72h16v80c0 4.417969-3.582031 8-8 8zm0 0"/><path d="m248 408h-16v-96c0-4.417969 3.582031-8 8-8h24v-24h16v32c0 4.417969-3.582031 8-8 8h-24zm0 0"/><path d="m336 336h-24c-4.417969 0-8-3.582031-8-8v-64h16v56h16zm0 0"/><path d="m456 408h-16v-72h-56v-16h64c4.417969 0 8 3.582031 8 8zm0 0"/><path d="m328 216h96v16h-96zm0 0"/><path d="m225.601562 188.800781-21.601562-28.800781h-76c-4.417969 0-8-3.582031-8-8v-48h16v40h72c2.519531 0 4.890625 1.1875 6.398438 3.199219l24 32zm0 0"/><path d="m136 344h-16v-48c0-4.417969 3.582031-8 8-8h76l21.601562-28.800781 12.796876 9.601562-24 32c-1.507813 2.011719-3.878907 3.199219-6.398438 3.199219h-72zm0 0"/><path d="m256 16c0 8.835938-7.164062 16-16 16s-16-7.164062-16-16 7.164062-16 16-16 16 7.164062 16 16zm0 0"/><path d="m464 16c0 8.835938-7.164062 16-16 16s-16-7.164062-16-16 7.164062-16 16-16 16 7.164062 16 16zm0 0"/><path d="m464 224c0 8.835938-7.164062 16-16 16s-16-7.164062-16-16 7.164062-16 16-16 16 7.164062 16 16zm0 0"/><path d="m344 288h32v80h-32zm0 0"/><path d="m256 432c0 8.835938-7.164062 16-16 16s-16-7.164062-16-16 7.164062-16 16-16 16 7.164062 16 16zm0 0"/><path d="m464 432c0 8.835938-7.164062 16-16 16s-16-7.164062-16-16 7.164062-16 16-16 16 7.164062 16 16zm0 0"/></svg>