<?xml version="1.0"?>
<svg xmlns="http://www.w3.org/2000/svg" xmlns:xlink="http://www.w3.org/1999/xlink" xmlns:svgjs="http://svgjs.com/svgjs" version="1.1" width="512" height="512" x="0" y="0" viewBox="0 0 64 64" style="enable-background:new 0 0 512 512" xml:space="preserve" class=""><g><g xmlns="http://www.w3.org/2000/svg"><g fill="#f4b2b0"><path d="m32 32c-3.314 0-6 2.686-6 6s2.686 6 6 6 6-2.686 6-6-2.686-6-6-6zm0 8c-1.105 0-2-.895-2-2s.895-2 2-2 2 .895 2 2-.895 2-2 2z" fill="#9eb2cf" data-original="#f4b2b0" style="" class=""/><path d="m32 44c-1.094 0-2.117-.298-3-.809v6.809l3-3 3 3v-6.809c-.883.511-1.906.809-3 .809z" fill="#9eb2cf" data-original="#f4b2b0" style="" class=""/><path d="m23 14h18v6h-18z" fill="#9eb2cf" data-original="#f4b2b0" style="" class=""/></g><g fill="#b3404a"><path d="m55 1h-46c-.553 0-1 .447-1 1v60c0 .553.447 1 1 1h46c.553 0 1-.447 1-1v-60c0-.553-.447-1-1-1zm-4.414 4h-37.172l-2-2h41.172zm-.586 2v50h-36v-50zm-38-.586v51.172l-2 2v-55.172zm1.414 52.586h37.172l2 2h-41.172zm38.586-1.414v-51.172l2-2v55.172z" fill="#045ab6" data-original="#b3404a" style="" class=""/><path d="m17 51c1.654 0 3 1.346 3 3 0 .553.447 1 1 1h22c.553 0 1-.447 1-1 0-1.654 1.346-3 3-3 .553 0 1-.447 1-1v-36c0-.553-.447-1-1-1-1.654 0-3-1.346-3-3 0-.553-.447-1-1-1h-22c-.553 0-1 .447-1 1 0 1.654-1.346 3-3 3-.553 0-1 .447-1 1v36c0 .553.447 1 1 1zm1-36.101c1.956-.398 3.501-1.943 3.899-3.899h20.201c.398 1.956 1.943 3.501 3.899 3.899v34.201c-1.956.398-3.501 1.943-3.899 3.899h-20.201c-.398-1.956-1.943-3.501-3.899-3.899z" fill="#045ab6" data-original="#b3404a" style="" class=""/><path d="m23 21h18c.553 0 1-.447 1-1v-6c0-.553-.447-1-1-1h-18c-.553 0-1 .447-1 1v6c0 .553.447 1 1 1zm1-6h16v4h-16z" fill="#045ab6" data-original="#b3404a" style="" class=""/><path d="m20 23h24v2h-24z" fill="#045ab6" data-original="#b3404a" style="" class=""/><path d="m20 27h24v2h-24z" fill="#045ab6" data-original="#b3404a" style="" class=""/><path d="m32 31c-3.859 0-7 3.141-7 7 0 2.372 1.189 4.469 3 5.736v6.264c0 .404.243.77.617.924.374.156.804.069 1.09-.217l2.293-2.293 2.293 2.293c.191.191.447.293.707.293.129 0 .259-.024.383-.076.374-.154.617-.52.617-.924v-6.264c1.811-1.267 3-3.364 3-5.736 0-3.859-3.141-7-7-7zm2 16.586-1.293-1.293c-.391-.391-1.023-.391-1.414 0l-1.293 1.293v-2.881c.634.19 1.305.295 2 .295s1.366-.105 2-.295zm-2-4.586c-2.757 0-5-2.243-5-5s2.243-5 5-5 5 2.243 5 5-2.243 5-5 5z" fill="#045ab6" data-original="#b3404a" style="" class=""/><path d="m32 35c-1.654 0-3 1.346-3 3s1.346 3 3 3 3-1.346 3-3-1.346-3-3-3zm0 4c-.552 0-1-.448-1-1s.448-1 1-1 1 .448 1 1-.448 1-1 1z" fill="#045ab6" data-original="#b3404a" style="" class=""/></g></g></g></svg>
