<?xml version="1.0"?>
<svg xmlns="http://www.w3.org/2000/svg" xmlns:xlink="http://www.w3.org/1999/xlink" xmlns:svgjs="http://svgjs.com/svgjs" version="1.1" width="512" height="512" x="0" y="0" viewBox="0 0 62 62" style="enable-background:new 0 0 512 512" xml:space="preserve" class=""><g><g xmlns="http://www.w3.org/2000/svg"><g><path d="m31 33-4 4h-14v-4h-4v-4h4v-4h14l4 4h6.563c.289-1.971.437-3.923.437-5.804v-3.055l-.493-.29c-2.06-1.21-3.591-3.225-4.203-5.529l-.112-.421-12.192-6.501-12.191 6.502-.111.42c-.612 2.292-2.145 4.302-4.204 5.515l-.494.29v3.069c0 12.288 5.562 23.662 15.262 31.208.495.384 1.112.596 1.738.596s1.243-.212 1.737-.596c6.936-5.395 11.766-12.709 13.978-21.204l.041-.2z" fill="#9eb2cf" data-original="#f0bc5e" style="" class=""/></g><g><path d="m48 28h14v2h-14z" fill="#045ab6" data-original="#000000" style="" class=""/><path d="m48 32h14v2h-14z" fill="#045ab6" data-original="#000000" style="" class=""/><path d="m55 56c-1.302 0-2.402.839-2.816 2h-10.77l-3-3h-7.414v2h6.586l3 3h11.598c.414 1.161 1.514 2 2.816 2 1.654 0 3-1.346 3-3s-1.346-3-3-3zm0 4c-.552 0-1-.449-1-1s.448-1 1-1 1 .449 1 1-.448 1-1 1z" fill="#045ab6" data-original="#000000" style="" class=""/><path d="m59 48c-1.302 0-2.402.839-2.816 2h-8.77l-3-3h-7.414v2h6.586l3 3h9.598c.414 1.161 1.514 2 2.816 2 1.654 0 3-1.346 3-3s-1.346-3-3-3zm0 4c-.552 0-1-.449-1-1s.448-1 1-1 1 .449 1 1-.448 1-1 1z" fill="#045ab6" data-original="#000000" style="" class=""/><path d="m59 40c-1.302 0-2.402.839-2.816 2h-4.77l-3-3h-7.414v2h6.586l3 3h5.598c.414 1.161 1.514 2 2.816 2 1.654 0 3-1.346 3-3s-1.346-3-3-3zm0 4c-.552 0-1-.449-1-1s.448-1 1-1 1 .449 1 1-.448 1-1 1z" fill="#045ab6" data-original="#000000" style="" class=""/><path d="m41.414 4h10.77c.414 1.161 1.514 2 2.816 2 1.654 0 3-1.346 3-3s-1.346-3-3-3c-1.302 0-2.402.839-2.816 2h-11.598l-3 3h-6.586v2h7.414zm13.586-2c.552 0 1 .449 1 1s-.448 1-1 1-1-.449-1-1 .448-1 1-1z" fill="#045ab6" data-original="#000000" style="" class=""/><path d="m59 16c-1.302 0-2.402.839-2.816 2h-5.598l-3 3h-5.586v-3.818l-.9-.182c-1.284-.257-2.365-.999-3.099-2h6.414l3-3h8.77c.414 1.161 1.514 2 2.816 2 1.654 0 3-1.346 3-3s-1.346-3-3-3c-1.302 0-2.402.839-2.816 2h-9.598l-3 3h-6.478c-.067-.326-.109-.658-.109-1v-.6l-16-8.533-16 8.533v.6c0 2.422-1.724 4.525-4.1 5l-.9.182v6.015c0 13.531 6.126 26.057 16.807 34.365 1.193.927 2.682 1.438 4.193 1.438s3-.511 4.193-1.438c7.591-5.905 13.043-14.25 15.43-23.562h5.377v-6h-4.304c.185-1.64.304-3.257.304-4.804v-.196h6.414l3-3h4.77c.414 1.161 1.514 2 2.816 2 1.654 0 3-1.346 3-3s-1.346-3-3-3zm0-6c.552 0 1 .449 1 1s-.448 1-1 1-1-.449-1-1 .448-1 1-1zm-15 22h-12v-2h12zm-12.586-4-4-4h-15.414v4h-4v6h4v4h15.414l4-4h7.144c-2.343 8.684-7.486 16.454-14.594 21.982-1.688 1.313-4.242 1.313-5.93 0-10.189-7.926-16.034-19.876-16.034-32.786v-4.415c2.742-.85 4.724-3.3 4.974-6.167l14.026-7.481 14.026 7.481c.248 2.841 2.201 5.274 4.974 6.159v4.423c0 1.542-.119 3.16-.314 4.804zm-5.414 0h-12v-2h12zm0 2v2h-16v-2zm-12 4h12v2h-12zm14-6.586 2 2v3.172l-2 2zm31-7.414c-.552 0-1-.449-1-1s.448-1 1-1 1 .449 1 1-.448 1-1 1z" fill="#045ab6" data-original="#000000" style="" class=""/><path d="m20 7.4h2v14.6h-2z" fill="#045ab6" data-original="#000000" style="" class=""/><path d="m20 40h2v15h-2z" fill="#045ab6" data-original="#000000" style="" class=""/></g></g></g></svg>
