<?xml version="1.0"?>
<svg xmlns="http://www.w3.org/2000/svg" xmlns:xlink="http://www.w3.org/1999/xlink" xmlns:svgjs="http://svgjs.com/svgjs" version="1.1" width="512" height="512" x="0" y="0" viewBox="0 0 512 512" style="enable-background:new 0 0 512 512" xml:space="preserve" class=""><g><path xmlns="http://www.w3.org/2000/svg" d="m136.453 512h-49.877c-7.525 0-13.625-6.1-13.625-13.625v-31.822h77.128v31.822c-.001 7.525-6.101 13.625-13.626 13.625z" fill="#bbcecf" data-original="#b6c4cf" style="" class=""/><path xmlns="http://www.w3.org/2000/svg" d="m425.424 512h-49.878c-7.525 0-13.625-6.1-13.625-13.625v-31.822h77.128v31.822c0 7.525-6.1 13.625-13.625 13.625z" fill="#bbcecf" data-original="#b6c4cf" style="" class=""/><path xmlns="http://www.w3.org/2000/svg" d="m492.995 476.143h-473.99c-9.82 0-17.78-7.961-17.78-17.78v-440.583c-.001-9.819 7.96-17.78 17.78-17.78h473.991c9.82 0 17.78 7.961 17.78 17.78v440.582c0 9.82-7.961 17.781-17.781 17.781z" fill="#b3c3dd" data-original="#596c76" style="" class=""/><path xmlns="http://www.w3.org/2000/svg" d="m457.347 432.943h-402.694c-7.365 0-13.336-5.971-13.336-13.336v-363.071c0-7.365 5.971-13.336 13.336-13.336h402.694c7.365 0 13.336 5.971 13.336 13.336v363.071c0 7.365-5.971 13.336-13.336 13.336z" fill="#e0e9f9" data-original="#f9f3f1" style="" class=""/><path xmlns="http://www.w3.org/2000/svg" d="m470.682 56.54v363.065c0 7.363-5.975 13.338-13.338 13.338h-402.688c-7.363 0-13.338-5.975-13.338-13.338v-18.583h378.758c7.363 0 13.338-5.965 13.338-13.338v-344.482h23.93c7.363 0 13.338 5.964 13.338 13.338z" fill="#dae3f3" data-original="#f3eae6" style="" class=""/><circle xmlns="http://www.w3.org/2000/svg" cx="251.367" cy="238.071" fill="#bbcecf" r="140.362" data-original="#b6c4cf" style="" class=""/><path xmlns="http://www.w3.org/2000/svg" d="m379.857 281.54h-66.999v-86.936h66.999c24.007 0 43.468 19.461 43.468 43.468.001 24.006-19.461 43.468-43.468 43.468z" fill="#b3c3dd" data-original="#596c76" style="" class=""/><path xmlns="http://www.w3.org/2000/svg" d="m423.326 238.067c0 12.011-4.864 22.871-12.731 30.738s-18.727 12.731-30.738 12.731h-66.998v-24.444h51.192c12.001 0 22.871-4.864 30.738-12.731s12.731-18.737 12.731-30.738c0-3.435-.401-6.787-1.152-9.996 10.314 7.939 16.958 20.413 16.958 34.44z" fill="#adbacf" data-original="#465a61" style="" class=""/><path xmlns="http://www.w3.org/2000/svg" d="m50.146 177.451h-48.922v-58.254h48.922c16.086 0 29.127 13.041 29.127 29.127 0 16.087-13.04 29.127-29.127 29.127z" fill="#bbcecf" data-original="#b6c4cf" style="" class=""/><path xmlns="http://www.w3.org/2000/svg" d="m50.146 356.946h-48.922v-58.254h48.922c16.086 0 29.127 13.041 29.127 29.127 0 16.086-13.04 29.127-29.127 29.127z" fill="#bbcecf" data-original="#b6c4cf" style="" class=""/><circle xmlns="http://www.w3.org/2000/svg" cx="251.365" cy="238.074" fill="#e0e9f9" r="92.296" data-original="#f9f3f1" style="" class=""/><path xmlns="http://www.w3.org/2000/svg" d="m343.666 238.069c0-7.766-.957-15.308-2.769-22.511h-67.016v-67.016c-7.204-1.812-14.745-2.769-22.511-2.769s-15.308.957-22.511 2.769v67.016h-67.016c-1.812 7.204-2.769 14.745-2.769 22.511s.957 15.308 2.769 22.511h67.016v67.016c7.204 1.812 14.745 2.769 22.511 2.769s15.308-.957 22.511-2.769v-67.016h67.016c1.812-7.203 2.769-14.745 2.769-22.511z" fill="#77e7ff" data-original="#fdb441" style="" class=""/><circle xmlns="http://www.w3.org/2000/svg" cx="251.365" cy="238.074" fill="#04b682" r="45.688" data-original="#01998d" style="" class=""/><g xmlns="http://www.w3.org/2000/svg" fill="#596c76"><circle cx="75.083" cy="75.118" r="8.741" fill="#b3c3dd" data-original="#596c76" style="" class=""/><circle cx="436.917" cy="75.118" r="8.741" fill="#b3c3dd" data-original="#596c76" style="" class=""/><circle cx="75.083" cy="401.025" r="8.741" fill="#b3c3dd" data-original="#596c76" style="" class=""/><circle cx="436.917" cy="401.025" r="8.741" fill="#b3c3dd" data-original="#596c76" style="" class=""/></g></g></svg>
